<svg width="18" height="18" viewBox="0 0 18 18" fill="none" xmlns="http://www.w3.org/2000/svg">
    <path d="M17.6667 6.26315V8.99999C17.6667 11.2673 13.7865 13.1053 9 13.1053C4.21353 13.1053 0.333332 11.2673 0.333332 8.99999V6.26315C0.333332 8.53044 4.21353 10.3684 9 10.3684C13.7865 10.3684 17.6667 8.53044 17.6667 6.26315ZM0.333332 10.8246C0.333332 13.0918 4.21353 14.9298 9 14.9298C13.7865 14.9298 17.6667 13.0918 17.6667 10.8246V13.5614C17.6667 15.8287 13.7865 17.6667 9 17.6667C4.21353 17.6667 0.333332 15.8287 0.333332 13.5614V10.8246ZM9 8.54385C4.21353 8.54385 0.333332 6.70586 0.333332 4.43859C0.333332 2.17132 4.21353 0.333328 9 0.333328C13.7865 0.333328 17.6667 2.17132 17.6667 4.43859C17.6667 6.70586 13.7865 8.54385 9 8.54385Z" fill="white"/>
</svg>
