<svg width="13" height="12" viewBox="0 0 13 12" fill="none" xmlns="http://www.w3.org/2000/svg">
    <path d="M12.5 4.5C12.5001 4.60386 12.4678 4.70516 12.4076 4.78984C12.3475 4.87451 12.2625 4.93835 12.1644 4.9725L1 8.85563V11.5C1 11.6326 0.947322 11.7598 0.853553 11.8536C0.759785 11.9473 0.632608 12 0.5 12C0.367392 12 0.240215 11.9473 0.146447 11.8536C0.0526786 11.7598 8.50115e-08 11.6326 8.50115e-08 11.5V0.5C-4.64501e-05 0.42019 0.0190126 0.341529 0.055584 0.270591C0.0921555 0.199654 0.145177 0.138502 0.210215 0.0922467C0.275254 0.0459915 0.350421 0.0159774 0.429432 0.00471327C0.508442 -0.00655084 0.589002 0.00126221 0.664375 0.0274996L12.1644 4.0275C12.2625 4.06164 12.3475 4.12549 12.4076 4.21016C12.4678 4.29484 12.5001 4.39614 12.5 4.5Z" fill="#757F99"/>
</svg>
