<svg width="19" height="20" viewBox="0 0 19 20" fill="none" xmlns="http://www.w3.org/2000/svg">
    <path d="M16.1216 9.99993C18.5179 6.63505 19.7399 3.15738 18.0406 1.45792C16.3413 -0.241535 12.8639 0.980558 9.49923 3.3771C6.13459 0.980558 2.65718 -0.241535 0.957849 1.45792C-0.741483 3.15738 0.48052 6.63505 2.87689 9.99993C0.48052 13.3648 -0.741483 16.8425 0.957849 18.5419C1.50517 19.0893 2.23624 19.3333 3.08785 19.3333C4.88342 19.3333 7.21758 18.2474 9.50409 16.6228C11.7809 18.2474 14.1141 19.3333 15.9155 19.3333C16.7671 19.3333 17.4991 19.0883 18.0455 18.5419C19.7399 16.8425 18.5179 13.3648 16.1216 9.99993ZM16.9411 2.55751C17.6838 3.3003 17.1822 5.70754 15.1407 8.70979C14.4948 7.91021 13.8072 7.14529 13.0807 6.41824C12.3533 5.69294 11.5885 5.00625 10.7893 4.361C13.7913 2.31932 16.1984 1.81473 16.9411 2.55751ZM2.05736 2.55751C2.27124 2.34265 2.62413 2.23182 3.08979 2.23182C4.23888 2.23182 6.07335 2.90266 8.20821 4.361C7.40952 5.00649 6.64501 5.69316 5.9178 6.41824C5.19228 7.14537 4.50563 7.91028 3.86071 8.70979C1.81918 5.70754 1.31463 3.3003 2.05736 2.55751ZM2.05736 17.4424C1.31463 16.6996 1.81918 14.2923 3.86071 11.2901C4.50657 12.0897 5.1942 12.8546 5.92072 13.5816C6.64732 14.3066 7.41117 14.9933 8.20918 15.6389C5.20715 17.6805 2.80009 18.1851 2.05736 17.4424ZM9.49923 11.1666C9.2685 11.1666 9.04295 11.0982 8.85111 10.97C8.65926 10.8418 8.50974 10.6596 8.42144 10.4464C8.33315 10.2332 8.31004 9.99864 8.35506 9.77233C8.40007 9.54601 8.51118 9.33813 8.67433 9.17497C8.83748 9.01181 9.04534 8.90069 9.27164 8.85567C9.49794 8.81066 9.7325 8.83376 9.94567 8.92207C10.1588 9.01037 10.341 9.1599 10.4692 9.35176C10.5974 9.54362 10.6658 9.76919 10.6658 9.99993C10.6658 10.3094 10.5429 10.6061 10.3241 10.8249C10.1054 11.0437 9.80863 11.1666 9.49923 11.1666ZM16.9411 17.4433C16.1984 18.1871 13.7913 17.6844 10.7893 15.6428C11.5884 14.9963 12.3532 14.3087 13.0807 13.5826C13.8062 12.8552 14.4929 12.0899 15.1377 11.2901C17.1793 14.2923 17.6838 16.6996 16.9411 17.4424V17.4433Z" fill="white"/>
</svg>
