<svg width="10" height="10" viewBox="0 0 10 10" fill="none" xmlns="http://www.w3.org/2000/svg">
    <path d="M0.391678 6.59855L1.2672 8.06815C1.37156 8.24328 1.58895 8.3227 1.78658 8.2579L3.07488 7.83553C3.18872 7.90827 3.30677 7.97445 3.42827 8.03368L3.69489 9.32563C3.73581 9.52393 3.91549 9.66667 4.12416 9.66667H5.87519C6.08386 9.66667 6.26354 9.52393 6.30446 9.32563L6.57108 8.03368C6.69258 7.97445 6.8106 7.90824 6.92444 7.83553L8.21277 8.2579C8.4104 8.32264 8.62782 8.24331 8.73215 8.06815L9.60767 6.59852C9.712 6.42339 9.6743 6.20123 9.51755 6.06774L8.49582 5.19756C8.49976 5.13163 8.50175 5.06565 8.50175 5C8.50175 4.93433 8.49976 4.86835 8.49582 4.80242L9.51749 3.93227C9.67424 3.79877 9.71195 3.57661 9.60761 3.40149L8.7321 1.93185C8.62776 1.75673 8.41034 1.67728 8.21271 1.7421L6.92444 2.16448C6.81063 2.09174 6.69258 2.02555 6.57108 1.96633L6.30446 0.67437C6.26354 0.476079 6.08386 0.333336 5.87519 0.333336H4.12416C3.91549 0.333336 3.73581 0.476079 3.69489 0.67437L3.42827 1.96633C3.30677 2.02555 3.18875 2.09176 3.07491 2.16448L1.78658 1.7421C1.58901 1.67734 1.37156 1.75673 1.2672 1.93185L0.391678 3.40149C0.287346 3.57661 0.325051 3.79877 0.481798 3.93227L1.50347 4.80242C1.49956 4.86826 1.4976 4.93425 1.4976 5C1.4976 5.06576 1.49956 5.13177 1.50347 5.19759L0.481798 6.06774C0.325051 6.20123 0.287346 6.42339 0.391678 6.59855ZM4.99968 3.30303C5.9652 3.30303 6.75071 4.06429 6.75071 5C6.75071 5.93571 5.9652 6.69697 4.99968 6.69697C4.03415 6.69697 3.24864 5.93571 3.24864 5C3.24864 4.06429 4.03415 3.30303 4.99968 3.30303Z" fill="#2772E2"/>
</svg>
