<svg width="15" height="18" viewBox="0 0 15 18" fill="none" xmlns="http://www.w3.org/2000/svg">
    <path d="M14.1667 4.63666V1.66666C14.1667 1.31304 14.0106 0.973901 13.7328 0.723852C13.4549 0.473804 13.0781 0.333328 12.6852 0.333328H2.31482C1.92191 0.333328 1.54509 0.473804 1.26726 0.723852C0.989428 0.973901 0.833344 1.31304 0.833344 1.66666V4.66666C0.833844 4.87358 0.887612 5.07757 0.990428 5.26264C1.09324 5.44771 1.24231 5.60882 1.42594 5.73333L6.26575 8.99999L1.42594 12.2667C1.24231 12.3912 1.09324 12.5523 0.990428 12.7373C0.887612 12.9224 0.833844 13.1264 0.833344 13.3333V16.3333C0.833344 16.6869 0.989428 17.0261 1.26726 17.2761C1.54509 17.5262 1.92191 17.6667 2.31482 17.6667H12.6852C13.0781 17.6667 13.4549 17.5262 13.7328 17.2761C14.0106 17.0261 14.1667 16.6869 14.1667 16.3333V13.3633C14.1661 13.1572 14.1128 12.954 14.0109 12.7694C13.9089 12.5849 13.761 12.4239 13.5787 12.2992L8.72871 8.99999L13.5787 5.70083C13.761 5.57606 13.9089 5.41514 14.0109 5.23058C14.1128 5.04601 14.1661 4.84278 14.1667 4.63666ZM12.6852 1.66666V3.66666H2.31482V1.66666H12.6852ZM12.6852 14.3333H2.31482V13.3333L7.50001 9.83333L12.6852 13.3625V14.3333Z" fill="white"/>
</svg>
