<svg width="14" height="12" viewBox="0 0 14 12" fill="none" xmlns="http://www.w3.org/2000/svg">
    <path d="M12.2267 2.60607H2.27111C2.13909 2.60607 2.01248 2.55498 1.91913 2.46406C1.82578 2.37313 1.77333 2.24981 1.77333 2.12122C1.77333 1.99263 1.82578 1.8693 1.91913 1.77838C2.01248 1.68745 2.13909 1.63637 2.27111 1.63637H10.7333C10.8654 1.63637 10.992 1.58529 11.0853 1.49436C11.1787 1.40343 11.2311 1.28011 11.2311 1.15152C11.2311 1.02293 11.1787 0.899607 11.0853 0.808681C10.992 0.717754 10.8654 0.666672 10.7333 0.666672H2.27111C1.87506 0.666672 1.49522 0.819918 1.21517 1.0927C0.935112 1.36548 0.777779 1.73545 0.777779 2.12122V9.87879C0.777779 10.2646 0.935112 10.6345 1.21517 10.9073C1.49522 11.1801 1.87506 11.3333 2.27111 11.3333H12.2267C12.4907 11.3333 12.7439 11.2312 12.9306 11.0493C13.1173 10.8675 13.2222 10.6208 13.2222 10.3636V3.57576C13.2222 3.31858 13.1173 3.07194 12.9306 2.89008C12.7439 2.70823 12.4907 2.60607 12.2267 2.60607ZM9.98667 7.45455C9.83899 7.45455 9.69463 7.4119 9.57184 7.33198C9.44905 7.25207 9.35335 7.13848 9.29684 7.00559C9.24032 6.8727 9.22554 6.72647 9.25435 6.58539C9.28316 6.44432 9.35427 6.31473 9.4587 6.21302C9.56312 6.11131 9.69616 6.04204 9.841 6.01398C9.98584 5.98592 10.136 6.00032 10.2724 6.05537C10.4088 6.11041 10.5255 6.20363 10.6075 6.32323C10.6895 6.44283 10.7333 6.58344 10.7333 6.72728C10.7333 6.92016 10.6547 7.10515 10.5146 7.24154C10.3746 7.37793 10.1847 7.45455 9.98667 7.45455Z" fill="#B0D0FF"/>
</svg>
