<svg width="20" height="16" viewBox="0 0 20 16" fill="none" xmlns="http://www.w3.org/2000/svg">
<path d="M17.84 2.90909H2.90669C2.70866 2.90909 2.51874 2.83247 2.37871 2.69608C2.23869 2.55969 2.16002 2.3747 2.16002 2.18182C2.16002 1.98893 2.23869 1.80395 2.37871 1.66756C2.51874 1.53117 2.70866 1.45455 2.90669 1.45455H15.6C15.798 1.45455 15.988 1.37792 16.128 1.24153C16.268 1.10514 16.3467 0.920157 16.3467 0.727273C16.3467 0.534388 16.268 0.349404 16.128 0.213013C15.988 0.0766233 15.798 0 15.6 0H2.90669C2.3126 0 1.74285 0.22987 1.32277 0.63904C0.902686 1.04821 0.666687 1.60316 0.666687 2.18182V13.8182C0.666687 14.3968 0.902686 14.9518 1.32277 15.361C1.74285 15.7701 2.3126 16 2.90669 16H17.84C18.2361 16 18.6159 15.8468 18.896 15.574C19.176 15.3012 19.3334 14.9312 19.3334 14.5455V4.36364C19.3334 3.97787 19.176 3.6079 18.896 3.33512C18.6159 3.06234 18.2361 2.90909 17.84 2.90909ZM14.48 10.1818C14.2585 10.1818 14.042 10.1178 13.8578 9.99797C13.6736 9.8781 13.53 9.70772 13.4453 9.50838C13.3605 9.30904 13.3383 9.0897 13.3815 8.87808C13.4248 8.66647 13.5314 8.47209 13.6881 8.31952C13.8447 8.16695 14.0443 8.06306 14.2615 8.02096C14.4788 7.97887 14.704 8.00047 14.9086 8.08304C15.1133 8.16561 15.2882 8.30543 15.4113 8.48483C15.5343 8.66423 15.6 8.87515 15.6 9.09091C15.6 9.38024 15.482 9.65771 15.272 9.8623C15.0619 10.0669 14.7771 10.1818 14.48 10.1818Z" fill="white"/>
</svg>
